<svg xmlns="http://www.w3.org/2000/svg" width="117.208" height="25.036" viewBox="0 0 117.208 25.036" fill='#fff'>
  <g id="Group_1" fill='#fff' data-name="Group 1" transform="translate(-216.792 -93)">
    <path id="Path_1"  data-name="Path 1" d="M1.908-3.456A2.325,2.325,0,0,1,2.52-5.022,1.857,1.857,0,0,1,4-5.76H7.6V-6.876H4a2.751,2.751,0,0,1-1.5-.792,2.037,2.037,0,0,1-.585-1.458,2.274,2.274,0,0,1,.621-1.683,2.3,2.3,0,0,1,1.7-.621h6.12v-1.134H4.23a3.3,3.3,0,0,0-2.412,1.026A3.225,3.225,0,0,0,.792-9.126a3.849,3.849,0,0,0,.342,1.638A2.125,2.125,0,0,0,2.142-6.426,3.039,3.039,0,0,0,1.134-5.148,4.222,4.222,0,0,0,.792-3.456,3.2,3.2,0,0,0,1.818-1.062,3.312,3.312,0,0,0,4.23-.018h6.12V-1.206H4.23a2.318,2.318,0,0,1-1.7-.612A2.2,2.2,0,0,1,1.908-3.456Zm9.4,3.42H12.42V-7.65a3.658,3.658,0,0,1,1.152-2.664,3.658,3.658,0,0,1,2.664-1.152A3.738,3.738,0,0,1,18.9-10.314,3.646,3.646,0,0,1,20.034-7.65V-.036h1.152V-7.65a3.581,3.581,0,0,1,1.152-2.664,3.638,3.638,0,0,1,2.646-1.152,3.658,3.658,0,0,1,2.664,1.152A3.658,3.658,0,0,1,28.8-7.65V-.036h1.116V-7.65a4.755,4.755,0,0,0-1.44-3.492,4.755,4.755,0,0,0-3.492-1.44,4.727,4.727,0,0,0-2.538.738,4.356,4.356,0,0,0-1.728,1.926,5.383,5.383,0,0,0-1.89-1.926,5,5,0,0,0-2.592-.738,4.734,4.734,0,0,0-3.474,1.44A4.764,4.764,0,0,0,11.3-7.65Zm21.06-3.42a2.325,2.325,0,0,1,.612-1.566,1.857,1.857,0,0,1,1.476-.738h3.6V-6.876h-3.6a2.751,2.751,0,0,1-1.5-.792,2.037,2.037,0,0,1-.585-1.458,2.274,2.274,0,0,1,.621-1.683,2.3,2.3,0,0,1,1.7-.621h6.12v-1.134h-6.12a3.3,3.3,0,0,0-2.412,1.026,3.225,3.225,0,0,0-1.026,2.412,3.849,3.849,0,0,0,.342,1.638A2.125,2.125,0,0,0,32.6-6.426,3.039,3.039,0,0,0,31.59-5.148a4.222,4.222,0,0,0-.342,1.692,3.2,3.2,0,0,0,1.026,2.394A3.312,3.312,0,0,0,34.686-.018h6.12V-1.206h-6.12a2.318,2.318,0,0,1-1.7-.612A2.2,2.2,0,0,1,32.364-3.456Zm14.8-2.862h1.35a3.075,3.075,0,0,0,2.268-.9,3.075,3.075,0,0,0,.9-2.268,3.066,3.066,0,0,0-.9-2.16,3.043,3.043,0,0,0-2.268-.99H41.76V0h1.116V-6.318H45.81L49.644,0h1.35ZM42.876-7.434V-11.5H48.51a2.061,2.061,0,0,1,1.458.594,1.94,1.94,0,0,1,.594,1.422,1.982,1.982,0,0,1-.594,1.458,2.061,2.061,0,0,1-1.458.594Zm18.162-3.78a4.568,4.568,0,0,0-3.42-1.458,4.454,4.454,0,0,0-3.384,1.458,4.943,4.943,0,0,0-1.35,3.51V0h1.134V-5.652h7.236V0h1.134V-7.7A4.943,4.943,0,0,0,61.038-11.214Zm.216,4.446H54.018V-7.7a3.828,3.828,0,0,1,1.044-2.682,3.354,3.354,0,0,1,2.556-1.152,3.466,3.466,0,0,1,2.592,1.152A3.828,3.828,0,0,1,61.254-7.7ZM63.81.036h8.8V-.882H64.926V-12.6H63.81ZM77.256-12.618H73.368V0h3.888a6.2,6.2,0,0,0,4.5-1.836,6.191,6.191,0,0,0,1.926-4.59,5.857,5.857,0,0,0-1.926-4.392A6.3,6.3,0,0,0,77.256-12.618Zm0,11.484H74.5V-11.448h2.754a5.234,5.234,0,0,1,3.78,1.476,4.779,4.779,0,0,1,1.512,3.546,5.107,5.107,0,0,1-1.512,3.762A5.135,5.135,0,0,1,77.256-1.134Z" transform="translate(216 118)"/>
    <text id="perfection" transform="translate(303 103)"  font-size="12" font-family="FreestyleScript-Regular, Freestyle Script"><tspan x="0" y="0">perfection</tspan></text>
  </g>
</svg>
